<?xml version="1.0" encoding="UTF-8" standalone="no" ?>
<!DOCTYPE svg PUBLIC "-//W3C//DTD SVG 1.1//EN" "http://www.w3.org/Graphics/SVG/1.1/DTD/svg11.dtd">
<svg xmlns="http://www.w3.org/2000/svg" xmlns:xlink="http://www.w3.org/1999/xlink" version="1.1" width="1200" height="900" viewBox="4485 3135 1200 900" xml:space="preserve">
<desc>Created with Fabric.js 5.2.4</desc>
<defs>
</defs>
<rect x="0" y="0" width="100%" height="100%" fill="transparent"></rect>
<g transform="matrix(1 0 0 1 600 450)" id="7b1ab09c-e81d-4bf7-b826-14b1a6efd705"  >
<rect style="stroke: none; stroke-width: 1; stroke-dasharray: none; stroke-linecap: butt; stroke-dashoffset: 0; stroke-linejoin: miter; stroke-miterlimit: 4; fill: rgb(255,255,255); fill-rule: nonzero; opacity: 1; visibility: hidden;" vector-effect="non-scaling-stroke"  x="-600" y="-450" rx="0" ry="0" width="1200" height="900" />
</g>
<g transform="matrix(Infinity NaN NaN Infinity 0 0)" id="f959ef16-c53e-42c1-b97a-73e12d2ffc32"  >
</g>
<g transform="matrix(0.12 0 0 0.12 -3916.43 -3224.37)"  >
<path style="stroke: rgb(0,0,0); stroke-width: 0; stroke-dasharray: none; stroke-linecap: butt; stroke-dashoffset: 0; stroke-linejoin: miter; stroke-miterlimit: 4; fill: rgb(118,255,3); fill-rule: nonzero; opacity: 1;" vector-effect="non-scaling-stroke"  transform=" translate(-896, -960)" d="M 553 1399 L 503 1449 Q 493 1459 480 1459 Q 467 1459 457 1449 L -9 983 Q -19 973 -19 960 Q -19 947 -9 937 L 457 471 Q 467 461 480 461 Q 493 461 503 471 L 553 521 Q 563 531 563 544 Q 563 557 553 567 L 160 960 L 553 1353 Q 563 1363 563 1376 Q 563 1389 553 1399 z M 1144 332 L 771 1623 Q 767 1636 755.5 1642.5 Q 744 1649 732 1645 L 670 1628 Q 657 1624 650.5 1612.5 Q 644 1601 648 1588 L 1021 297 Q 1025 284 1036.5 277.5 Q 1048 271 1060 275 L 1122 292 Q 1135 296 1141.5 307.5 Q 1148 319 1144 332 z M 1801 983 L 1335 1449 Q 1325 1459 1312 1459 Q 1299 1459 1289 1449 L 1239 1399 Q 1229 1389 1229 1376 Q 1229 1363 1239 1353 L 1632 960 L 1239 567 Q 1229 557 1229 544 Q 1229 531 1239 521 L 1289 471 Q 1299 461 1312 461 Q 1325 461 1335 471 L 1801 937 Q 1811 947 1811 960 Q 1811 973 1801 983 z" stroke-linecap="round" />
</g>
<g transform="matrix(0 0 NaN NaN -3983.45 0)"  >
<g style=""   >
</g>
</g>
<g transform="matrix(0 0 NaN NaN -3983.45 0)"  >
<g style=""   >
</g>
</g>
<g transform="matrix(NaN NaN NaN NaN 0 0)"  >
<g style=""   >
</g>
</g>
<g transform="matrix(NaN NaN NaN NaN 0 0)"  >
<g style=""   >
</g>
</g>
<g transform="matrix(0.17 0 0 0.17 5051.55 3552.99)"  >
<g style="" vector-effect="non-scaling-stroke"   >
		<g transform="matrix(1 0 0 1 0 0)"  >
<rect style="stroke: none; stroke-width: 1; stroke-dasharray: none; stroke-linecap: butt; stroke-dashoffset: 0; stroke-linejoin: miter; stroke-miterlimit: 4; fill: rgb(255,255,255); fill-rule: nonzero; opacity: 1; visibility: hidden;" vector-effect="non-scaling-stroke"  x="-540" y="-540" rx="0" ry="0" width="1080" height="1080" />
</g>
		<g transform="matrix(1 0 0 1 0 0)"  >
<path style="stroke: rgb(0,0,0); stroke-width: 0; stroke-dasharray: none; stroke-linecap: butt; stroke-dashoffset: 0; stroke-linejoin: miter; stroke-miterlimit: 4; fill: rgb(118,255,3); fill-rule: nonzero; opacity: 1;" vector-effect="non-scaling-stroke"  transform=" translate(-896, -960)" d="M 553 1399 L 503 1449 Q 493 1459 480 1459 Q 467 1459 457 1449 L -9 983 Q -19 973 -19 960 Q -19 947 -9 937 L 457 471 Q 467 461 480 461 Q 493 461 503 471 L 553 521 Q 563 531 563 544 Q 563 557 553 567 L 160 960 L 553 1353 Q 563 1363 563 1376 Q 563 1389 553 1399 z M 1144 332 L 771 1623 Q 767 1636 755.5 1642.5 Q 744 1649 732 1645 L 670 1628 Q 657 1624 650.5 1612.5 Q 644 1601 648 1588 L 1021 297 Q 1025 284 1036.5 277.5 Q 1048 271 1060 275 L 1122 292 Q 1135 296 1141.5 307.5 Q 1148 319 1144 332 z M 1801 983 L 1335 1449 Q 1325 1459 1312 1459 Q 1299 1459 1289 1449 L 1239 1399 Q 1229 1389 1229 1376 Q 1229 1363 1239 1353 L 1632 960 L 1239 567 Q 1229 557 1229 544 Q 1229 531 1239 521 L 1289 471 Q 1299 461 1312 461 Q 1325 461 1335 471 L 1801 937 Q 1811 947 1811 960 Q 1811 973 1801 983 z" stroke-linecap="round" />
</g>
</g>
</g>
</svg>